<svg
  id="Layer_1"
  data-name="Layer 1"
  xmlns="http://www.w3.org/2000/svg"
  viewBox="0 0 150 220.42"
>
  <defs>
    <style>
      .cls-1 {
        fill: #e6e7e8;
      }
      .cls-2 {
        fill: #c4c4c4;
        stroke: #c2c1c0;
        stroke-miterlimit: 10;
      }
    </style>
  </defs>
  <title>card-default-01</title>
  <rect class="cls-1" width="150" height="220.42" />
  <path
    class="cls-2"
    d="M95.09,129.41H54.91a4.72,4.72,0,0,1-4.63-4.8V95.81A4.72,4.72,0,0,1,54.91,91H95.09a4.72,4.72,0,0,1,4.63,4.8v28.8A4.72,4.72,0,0,1,95.09,129.41Zm-34-32.8a5.6,5.6,0,1,0,5.41,5.6A5.51,5.51,0,0,0,61.09,96.61ZM56.46,123H93.54v-11.2l-8.45-8.75a1.13,1.13,0,0,0-1.64,0L70.36,116.61,65,111.06a1.12,1.12,0,0,0-1.63,0l-6.91,7.15Z"
  />
</svg>
