<?xml version="1.0" encoding="utf-8"?>
<!-- Generator: Adobe Illustrator 24.0.2, SVG Export Plug-In . SVG Version: 6.00 Build 0)  -->
<svg version="1.1" id="Layer_1" xmlns="http://www.w3.org/2000/svg" xmlns:xlink="http://www.w3.org/1999/xlink" x="0px" y="0px"
	 viewBox="0 0 614.9 486.73" style="enable-background:new 0 0 614.9 486.73;" xml:space="preserve">
<style type="text/css">
	.st0{fill:#E6E7E8;}
</style>
<path class="st0" d="M614.9,486.73c-79.17-26.44-157.99-52.76-236.82-79.1c-22.41-7.49-44.78-15.12-67.27-22.39
	c-2.56-0.83-5.95-0.31-8.62,0.58c-70.09,23.39-140.13,46.92-210.19,70.42c-29.35,9.85-58.7,19.69-88.05,29.52
	c-0.92,0.31-1.88,0.48-3.96,1c5.13-7.93,9.74-15.11,14.4-22.26c18.46-28.33,36.89-56.68,55.48-84.92c1.24-1.89,3.46-3.63,5.6-4.37
	c15.56-5.4,31.22-10.53,46.85-15.75c60.1-20.09,120.19-40.22,180.35-60.14c3.04-1.01,6.98-1.09,10-0.1
	c51.83,17.12,103.58,34.49,155.35,51.8c23.78,7.95,47.57,15.85,71.29,23.97c2.45,0.84,5.11,2.63,6.5,4.74
	c23.12,35.2,46.05,70.53,69.02,105.84C614.91,485.7,614.86,485.9,614.9,486.73z"/>
<path class="st0" d="M497.12,292.03c-13.54-4.51-27.09-9-40.63-13.53c-48.29-16.14-96.55-32.34-144.89-48.31
	c-2.56-0.85-5.93-0.56-8.56,0.31c-60.75,20.15-121.45,40.46-182.17,60.74c-0.76,0.25-1.53,0.47-3.13,0.95
	c0.91-1.71,1.39-2.8,2.04-3.79c22.36-34.35,44.73-68.69,67.11-103.02c1.8-2.75,3.29-5.59,7.78-4.12c1.36,0.45,3.55-2.42,5.58-3.12
	c13.69-4.72,27.44-9.29,41.18-13.87c20.62-6.88,41.22-13.83,61.92-20.48c2.74-0.88,6.25-0.91,8.98-0.01
	c36.83,12.12,73.59,24.43,110.32,36.85c2.16,0.73,4.45,2.42,5.69,4.31c17.69,27.03,35.17,54.2,52.78,81.27
	c5.44,8.36,11.13,16.56,16.71,24.83C497.58,291.37,497.35,291.7,497.12,292.03z"/>
<path class="st0" d="M235.33,111.11C259.76,73.68,283.48,37.34,307.84,0c24.25,37.18,48.07,73.7,72.58,111.29
	c-6.78-2.22-12.42-4.03-18.04-5.9c-16.88-5.62-33.71-11.37-50.65-16.8c-2.44-0.78-5.58-0.73-8.03,0.06
	c-21.03,6.83-41.98,13.92-62.96,20.91C239.36,110.02,237.95,110.37,235.33,111.11z"/>
<g>
</g>
<g>
</g>
<g>
</g>
<g>
</g>
<g>
</g>
<g>
</g>
</svg>
