<svg
  id="Layer_1"
  data-name="Layer 1"
  xmlns="http://www.w3.org/2000/svg"
  width="40"
  height="40"
  viewBox="0 0 614.9 486.76"
>
  <defs>
    <style>
      .cls-1 {
        fill: #e6e7e8;
      }
    </style>
  </defs>
  <title>logo-2-01</title>
  <path
    class="cls-1"
    d="M0,0,236.82,79.13c22.41,7.49,44.78,15.13,67.26,22.39,2.57.83,5.95.31,8.63-.58Q417.85,65.85,522.89,30.52,566.92,15.75,611,1c.91-.31,1.88-.48,3.95-1-5.13,7.93-9.74,15.11-14.4,22.26Q572.81,64.76,545,107.18a11.83,11.83,0,0,1-5.6,4.37c-15.57,5.41-31.22,10.53-46.85,15.75q-90.15,30.13-180.35,60.14a17,17,0,0,1-10,.1q-77.75-25.69-155.35-51.8c-23.77-8-47.57-15.85-71.28-24a13.33,13.33,0,0,1-6.5-4.75Q34.41,54.22.07,1.19C0,1.07.05.87,0,0Z"
  />
  <path
    class="cls-1"
    d="M117.79,194.74q20.31,6.75,40.63,13.52,72.42,24.21,144.89,48.32a14.62,14.62,0,0,0,8.55-.32Q403,226,494,195.52c.76-.25,1.53-.46,3.13-1-.91,1.71-1.39,2.81-2,3.8q-33.53,51.51-67.1,103c-1.8,2.76-3.29,5.59-7.79,4.12-1.36-.44-3.55,2.42-5.58,3.12-13.69,4.72-27.44,9.29-41.17,13.87-20.63,6.88-41.22,13.83-61.92,20.48a15.52,15.52,0,0,1-9,0q-55.23-18.18-110.31-36.85a11.71,11.71,0,0,1-5.69-4.31c-17.69-27-35.17-54.2-52.78-81.28-5.44-8.36-11.14-16.55-16.71-24.83Z"
  />
  <path
    class="cls-1"
    d="M379.57,375.65,307.06,486.76,234.48,375.47c6.78,2.22,12.42,4,18,5.91,16.88,5.62,33.72,11.37,50.65,16.8a13.9,13.9,0,0,0,8-.07c21-6.82,42-13.91,63-20.91C375.54,376.74,377,376.4,379.57,375.65Z"
  />
</svg>
