<svg
  id="Layer_1"
  data-name="Layer 1"
  xmlns="http://www.w3.org/2000/svg"
  width="40"
  height="40"
  viewBox="0 0 614.9 486.73"
>
  <defs>
    <style>
      .cls-1 {
        fill: #e6e7e8;
      }
    </style>
  </defs>
  <title>logo2-reverse</title>
  <path
    class="cls-1"
    d="M614.9,486.73l-236.81-79.1c-22.42-7.49-44.78-15.12-67.27-22.39-2.56-.83-5.95-.31-8.62.58Q197.07,420.92,92,456.24L4,485.76c-.92.31-1.88.48-4,1,5.13-7.93,9.74-15.11,14.4-22.26Q42.09,422,69.89,379.58a11.79,11.79,0,0,1,5.6-4.37c15.56-5.4,31.22-10.53,46.84-15.75q90.17-30.13,180.35-60.14a17,17,0,0,1,10-.1Q390.42,324.92,468,351c23.78,8,47.57,15.85,71.29,24a13.27,13.27,0,0,1,6.49,4.74q34.68,52.8,69,105.84C614.91,485.69,614.86,485.9,614.9,486.73Z"
  />
  <path
    class="cls-1"
    d="M497.12,292q-20.33-6.76-40.63-13.53-72.44-24.21-144.89-48.31a14.57,14.57,0,0,0-8.56.31q-91.13,30.23-182.17,60.74c-.75.25-1.53.46-3.13.95.91-1.71,1.39-2.8,2-3.79q33.54-51.52,67.11-103c1.79-2.75,3.28-5.59,7.78-4.12,1.36.44,3.55-2.42,5.58-3.12,13.69-4.72,27.44-9.28,41.18-13.87,20.62-6.88,41.22-13.83,61.91-20.48a15.52,15.52,0,0,1,9,0Q367.56,162,422.64,180.63a11.71,11.71,0,0,1,5.69,4.32c17.68,27,35.16,54.19,52.78,81.27,5.44,8.36,11.13,16.56,16.71,24.83Z"
  />
  <path
    class="cls-1"
    d="M235.33,111.11C259.76,73.68,283.48,37.34,307.84,0l72.58,111.29c-6.78-2.22-12.42-4-18-5.9C345.5,99.76,328.67,94,311.73,88.59a14,14,0,0,0-8,.06c-21,6.83-42,13.92-63,20.91C239.36,110,238,110.37,235.33,111.11Z"
  />
</svg>
